<svg xmlns="http://www.w3.org/2000/svg" width="186" height="46" fill="none"><path fill="#fff" d="M29.813 25.358h7.902v-8.936H44.3v-6.236h-6.585V7.644h8.78V1.408H29.814zm18.2 0h7.622V1.408h-7.623zm9.218 0h7.503V8.716h-7.503zm0-18.826h7.503V1.408h-7.503zm20.275 4.011h-.08c-1.078-1.708-2.794-2.303-4.75-2.303-4.15 0-6.425 2.66-6.425 8.897 0 6.037 2.953 7.943 6.226 7.943 1.876 0 3.951-.397 5.188-2.145h.08v2.105c0 2.105-.718 2.82-2.115 2.82q-.839 0-1.317-.357c-.32-.238-.439-.596-.439-.953H66.89c.359 3.376 1.636 5.64 8.181 5.64 5.947 0 9.14-1.51 9.14-8.262V8.716h-6.625zm-2.514 10.01c-1.836 0-2.315-1.63-2.315-3.655 0-1.867.16-4.011 2.354-4.011 2.235 0 2.475 1.906 2.475 3.892 0 2.065-.36 3.773-2.514 3.773M99.017 8.2c-2.713 0-4.11.953-5.268 2.74h-.08V1.408h-7.503v23.95h7.504V14.992c0-1.311.798-1.867 1.796-1.867.997 0 1.676.715 1.676 1.906v10.327h7.104V14.277c0-4.409-2.116-6.077-5.228-6.077m15.286-4.965-6.625 2.78v2.701h-2.155v4.925h2.155v7.547c0 3.733 1.796 4.686 4.59 4.686 1.596 0 3.552-.317 5.348-.714v-4.925c-.719.198-1.397.198-1.956.198-.958 0-1.357-.437-1.357-1.708v-5.124h3.632V8.717h-3.632zm19.796 8.54h-11.894V1.329h-2.354v24.03h2.354v-11.48H134.1v11.48h2.354V1.328H134.1zm15.684-2.78v8.856c0 1.748-.518 3.257-1.396 4.449-.879 1.191-1.956 1.787-3.353 1.827h-.319c-1.437-.12-2.515-.517-3.193-1.39-.679-.834-.918-2.304-.918-4.17V8.914h-2.115V19.4c0 1.947.439 3.535 1.357 4.727q1.377 1.787 4.669 1.787c1.597 0 2.714-.238 3.433-.755.718-.516 1.317-1.191 1.835-2.104v2.343h2.116V8.994zm16.723 1.151c-1.357-1.43-2.714-2.026-4.47-2.026h-.479q-.478 0-1.197.12a6.7 6.7 0 0 0-1.397.397 6.3 6.3 0 0 0-1.437.794c-.439.318-.838.755-1.197 1.271V1.33h-2.355l-.04 18.31v5.719h2.395v-2.303c.359.913 1.117 1.549 2.195 2.065s2.275.754 3.592.754h.319c1.995 0 3.592-.953 4.749-2.899 1.158-1.906 1.357-4.09 1.357-6.514-.159-2.74-.718-4.925-2.035-6.315m.04 6.355c0 2.224-.359 4.011-1.038 5.441-.718 1.43-1.836 2.145-3.432 2.145-1.956 0-3.433-.715-4.47-2.105q-1.557-2.085-1.557-5.243c0-1.986.519-3.574 1.597-4.885 1.037-1.271 2.354-1.907 3.911-1.907q2.095 0 3.113 1.192a6.65 6.65 0 0 1 1.477 2.621c.159.477.279.993.319 1.47.04.516.08.913.08 1.271"/><path fill="#F26539" fill-rule="evenodd" d="M28.735 18.13v7.228h-4.789s-7.663 0-7.663-7.229z" clip-rule="evenodd"/><path fill="#F8CB34" fill-rule="evenodd" d="M28.735 9.789v7.149h-12.93s-7.663 0-7.663-7.15z" clip-rule="evenodd"/><path fill="#2DB9E3" fill-rule="evenodd" d="M28.735 1.408v7.15H7.663S0 8.557 0 1.407z" clip-rule="evenodd"/><path fill="#fff" d="M103.035 35.938v2.684h1.111c.418 0 1.408-.11 1.408-1.353 0-1.21-.902-1.331-1.122-1.331zm0 7.062h-1.012v-7.942h2.354c1.067 0 2.211.396 2.211 2.266 0 1.804-1.408 2.178-2.222 2.178h-1.331zm5.804-5.555v.836h.022c.374-.847.836-.946 1.716-.946v.935l-.242-.033a2 2 0 0 0-.242-.022c-1.001 0-1.254.759-1.254 1.507V43h-.902v-5.555zm4.686 4.928c.935 0 1.166-.649 1.166-2.453 0-1.518-.473-1.848-1.166-1.848s-1.166.33-1.166 1.848c0 1.804.231 2.453 1.166 2.453m0 .737c-1.177 0-2.112-.352-2.112-2.805 0-1.628.187-2.97 2.112-2.97s2.112 1.342 2.112 2.97c0 2.453-.935 2.805-2.112 2.805m6.512-1.98v-3.685h.902v4.4c0 .385.022.77.055 1.155h-.957v-.671h-.033c-.297.506-.825.781-1.408.781-.968 0-1.496-.484-1.496-1.43v-4.235h.902v3.85c0 .671.308 1.122.946 1.122.484 0 1.089-.363 1.089-1.287m5.467-1.133c0-.737-.044-1.925-1.045-1.925-.968 0-1.1.77-1.1 2.255 0 .836 0 2.046 1.133 2.046 1.012 0 1.012-1.254 1.012-2.376m0-1.991v-2.948h.902V43h-.902v-.66h-.022c-.308.517-.693.77-1.276.77-.891 0-1.793-.352-1.793-2.794 0-1.386.044-2.981 1.837-2.981.528 0 .913.231 1.221.671zm3.443-2.948V43h-.902v-7.942zm1.9 2.387 1.331 4.521h.022l1.331-4.521h.979l-2.519 7.656h-.935l.627-2.101-1.881-5.555zm11.627-.198h-1.045c.011-.451-.022-.902-.231-1.155s-.682-.341-.891-.341c-.836 0-1.166.506-1.199.616-.033.088-.231.286-.231 1.65v2.123c0 1.947.638 2.178 1.419 2.178.308 0 1.243-.11 1.254-1.661h1.045c.044 2.508-1.727 2.508-2.244 2.508-.99 0-2.508-.066-2.508-3.146v-2.244c0-2.244.99-2.882 2.552-2.882 1.573 0 2.178.814 2.079 2.354m4.308 2.992c-.858.011-2.013-.066-2.013 1.111 0 .539.264 1.023.869 1.023.55 0 1.232-.341 1.144-2.134m.022 2.761v-.803h-.022c-.275.638-.704.913-1.397.913-1.177 0-1.518-.759-1.518-1.826 0-1.683 1.65-1.76 2.915-1.727.022-.737.033-1.54-.935-1.54-.605 0-.924.407-.869.99h-.979c.044-1.243.704-1.672 1.881-1.672 1.43 0 1.804.737 1.804 1.672v2.673c0 .44.044.891.11 1.32zm6.556 0h-.902v-3.85c0-.594-.209-1.078-.979-1.078-.99 0-1.133.88-1.133 1.639V43h-.902v-4.4c0-.385-.022-.77-.055-1.155h.957v.715h.044c.352-.627.77-.825 1.485-.825 1.188 0 1.485.715 1.485 1.815zm4.422-2.761c-.858.011-2.013-.066-2.013 1.111 0 .539.264 1.023.869 1.023.55 0 1.232-.341 1.144-2.134m.022 2.761v-.803h-.022c-.275.638-.704.913-1.397.913-1.177 0-1.518-.759-1.518-1.826 0-1.683 1.65-1.76 2.915-1.727.022-.737.033-1.54-.935-1.54-.605 0-.924.407-.869.99h-.979c.044-1.243.704-1.672 1.881-1.672 1.43 0 1.804.737 1.804 1.672v2.673c0 .44.044.891.11 1.32zm5.577-3.003c0-.737-.044-1.925-1.045-1.925-.968 0-1.1.77-1.1 2.255 0 .836 0 2.046 1.133 2.046 1.012 0 1.012-1.254 1.012-2.376m0-1.991v-2.948h.902V43h-.902v-.66h-.022c-.308.517-.693.77-1.276.77-.891 0-1.793-.352-1.793-2.794 0-1.386.044-2.981 1.837-2.981.528 0 .913.231 1.221.671zm3.443-.561V43h-.902v-5.555zm-.957-1.419v-.968h1.012v.968zm5.354 4.213c-.858.011-2.013-.066-2.013 1.111 0 .539.264 1.023.869 1.023.55 0 1.232-.341 1.144-2.134m.022 2.761v-.803h-.022c-.275.638-.704.913-1.397.913-1.177 0-1.518-.759-1.518-1.826 0-1.683 1.65-1.76 2.915-1.727.022-.737.033-1.54-.935-1.54-.605 0-.924.407-.869.99h-.979c.044-1.243.704-1.672 1.881-1.672 1.43 0 1.804.737 1.804 1.672v2.673c0 .44.044.891.11 1.32zm6.556 0h-.902v-3.85c0-.594-.209-1.078-.979-1.078-.99 0-1.133.88-1.133 1.639V43h-.902v-4.4c0-.385-.022-.77-.055-1.155h.957v.715h.044c.352-.627.77-.825 1.485-.825 1.188 0 1.485.715 1.485 1.815zm-89.288-.715c.114.396-.674.766-.338.848.338.085 2.253-.452 2.787-.622q.14-.044.254-.062v3.27c0 .155.126.281.283.281a.28.28 0 0 0 .283-.282V42.45q.112.016.254.062c.534.17 2.449.707 2.787.622.336-.085-.45-.452-.338-.848.114-.395 3.546-2.234 3.517-2.63 0 0 .029-.055-.619-.085-.648-.029-.703-.425-.17-1.384.535-.961.789-1.272.225-1.16-.563.114-1.436.34-1.576.114s-.084-.396-.364-1.132c-.283-.736-.508.425-1.716 1.073 0 0-.593.537-.056-1.357.534-1.894.339-2.15.14-1.98-.196.17-1.407 1.783-1.996-.987 0 0-.22-.766-.365-.757-.149-.009-.368.757-.368.757-.592 2.77-1.8 1.158-2 .988-.195-.17-.393.085.144 1.979.534 1.894-.058 1.357-.058 1.357-1.212-.65-1.436-1.809-1.717-1.073-.28.736-.224.903-.364 1.132-.14.225-1.013 0-1.576-.115-.564-.114-.31.197.224 1.159.534.961.479 1.357-.17 1.383-.647.03-.618.085-.618.085-.029.396 3.406 2.234 3.517 2.63z"/></svg>